<?xml version="1.0" encoding="UTF-8"?>
<svg version="1.1" xmlns="http://www.w3.org/2000/svg" width="51" height="58">
<path d="M0 0 C0.99 0 1.98 0 3 0 C3.33 1.32 3.66 2.64 4 4 C4.66644531 4.02578125 5.33289063 4.0515625 6.01953125 4.078125 C13.2644471 4.52396598 19.31262981 6.21898532 26 9 C27.33476276 21.33914016 22.55713796 35.24503668 15 45 C11.30449386 49.11386533 7.61046321 52.92635786 3 56 C-3.21870329 55.42558162 -8.14693976 49.07245979 -12.1875 44.75 C-20.26033778 34.92219749 -23.73200368 21.49828506 -23 9 C-15.63102439 5.93553239 -8.98209379 4.30878506 -1 4 C-0.67 2.68 -0.34 1.36 0 0 Z " fill="#D7D7D7" transform="translate(23,0)"/>
<path d="M0 0 C0 1.65 0 3.3 0 5 C-0.825 4.938125 -1.65 4.87625 -2.5 4.8125 C-6.24160644 5.0129432 -8.85010732 5.91399841 -12.265625 7.34375 C-14 8 -14 8 -16 8 C-16 14.27 -16 20.54 -16 27 C-14.35 27 -12.7 27 -11 27 C-11.061875 27.78375 -11.12375 28.5675 -11.1875 29.375 C-11.125625 30.24125 -11.06375 31.1075 -11 32 C-10.01 32.66 -9.02 33.32 -8 34 C-7.3125 36.625 -7.3125 36.625 -7 39 C-5.02 38.505 -5.02 38.505 -3 38 C-2.4465236 35.92446352 -2 34.15634036 -2 32 C-2.66 32 -3.32 32 -4 32 C-4.495 29.525 -4.495 29.525 -5 27 C-3.35 27.33 -1.7 27.66 0 28 C0 34.6 0 41.2 0 48 C0.99 48 1.98 48 3 48 C2.979375 47.195625 2.95875 46.39125 2.9375 45.5625 C3 43 3 43 4 42 C4.04063832 40.33382885 4.042721 38.66611905 4 37 C4.99 37.66 5.98 38.32 7 39 C7.99 39 8.98 39 10 39 C10.1546875 37.824375 10.1546875 37.824375 10.3125 36.625 C11 34 11 34 14 32 C14.25030977 29.41619823 14.25030977 29.41619823 14 27 C15.65 27 17.3 27 19 27 C18.94006733 24.06030263 18.85309577 21.12572941 18.75 18.1875 C18.73582031 17.35412109 18.72164062 16.52074219 18.70703125 15.66210938 C18.60453493 10.93079862 18.60453493 10.93079862 16.3125 6.96875 C13.55158728 5.81215143 11.23641525 5.49026281 8.25 5.3125 C6.77273437 5.21388672 6.77273437 5.21388672 5.265625 5.11328125 C4.51796875 5.07589844 3.7703125 5.03851562 3 5 C3 3.35 3 1.7 3 0 C11.57069757 -0.53847315 18.13664668 0.5326946 26 4 C27.33476276 16.33914016 22.55713796 30.24503668 15 40 C11.30449386 44.11386533 7.61046321 47.92635786 3 51 C-3.21870329 50.42558162 -8.14693976 44.07245979 -12.1875 39.75 C-20.26033778 29.92219749 -23.73200368 16.49828506 -23 4 C-15.13664668 0.5326946 -8.57069757 -0.53847315 0 0 Z " fill="#777776" transform="translate(23,5)"/>
<path d="M0 0 C0 6.93 0 13.86 0 21 C-3.63 20.67 -7.26 20.34 -11 20 C-11 18.02 -11 16.04 -11 14 C-11.99 14.33 -12.98 14.66 -14 15 C-14.05416188 13.39620659 -14.09286638 11.79188594 -14.125 10.1875 C-14.14820313 9.29417969 -14.17140625 8.40085937 -14.1953125 7.48046875 C-14 5 -14 5 -12 2 C-7.69341237 0.45612896 -4.62814901 0 0 0 Z " fill="#FBFBFB" transform="translate(22,9)"/>
<path d="M0 0 C3.63 0.33 7.26 0.66 11 1 C11 7.27 11 13.54 11 20 C7.37 19.67 3.74 19.34 0 19 C0 12.73 0 6.46 0 0 Z " fill="#FCFCFC" transform="translate(27,9)"/>
<path d="M0 0 C1.65 0 3.3 0 5 0 C4.938125 0.78375 4.87625 1.5675 4.8125 2.375 C4.874375 3.24125 4.93625 4.1075 5 5 C5.99 5.66 6.98 6.32 8 7 C8.6875 9.625 8.6875 9.625 9 12 C10.32 11.67 11.64 11.34 13 11 C13.5534764 8.92446352 14 7.15634036 14 5 C13.34 5 12.68 5 12 5 C11.67 3.35 11.34 1.7 11 0 C12.65 0.33 14.3 0.66 16 1 C16 6.61 16 12.22 16 18 C11.47959045 18 7.73223527 16.22932826 4.0625 13.625 C2.60166865 11.39078735 3 9.6426114 3 7 C2.05273046 5.30280873 1.05771739 3.63064764 0 2 C0 1.34 0 0.68 0 0 Z " fill="#262624" transform="translate(7,32)"/>
<path d="M0 0 C8.57069757 -0.53847315 15.13664668 0.5326946 23 4 C23.44032071 11.51806849 22.28612778 17.84224277 20 25 C19.67 25 19.34 25 19 25 C18.97301811 23.37509046 18.95361243 21.75005367 18.9375 20.125 C18.92589844 19.22007813 18.91429688 18.31515625 18.90234375 17.3828125 C19 15 19 15 20 13 C20.66 13 21.32 13 22 13 C21.67 10.69 21.34 8.38 21 6 C18.36 5.34 15.72 4.68 13 4 C12.67 4.66 12.34 5.32 12 6 C8.04 5.67 4.08 5.34 0 5 C0 3.35 0 1.7 0 0 Z " fill="#4B4B49" transform="translate(26,5)"/>
<path d="M0 0 C4 3 4 3 4.64453125 5.9609375 C4.69996094 7.08757813 4.75539063 8.21421875 4.8125 9.375 C4.91498047 11.05722656 4.91498047 11.05722656 5.01953125 12.7734375 C5.0018905 15.68768998 4.6919356 18.1794381 4 21 C-1.625 22.125 -1.625 22.125 -5 21 C-5.66 21.33 -6.32 21.66 -7 22 C-7.33 22.99 -7.66 23.98 -8 25 C-9.32 25 -10.64 25 -12 25 C-11.814375 24.38125 -11.62875 23.7625 -11.4375 23.125 C-10.76313824 20.95839822 -10.76313824 20.95839822 -12 19 C-8.04 18.67 -4.08 18.34 0 18 C0 12.06 0 6.12 0 0 Z " fill="#C0C0BF" transform="translate(38,11)"/>
<path d="M0 0 C2.97 0.33 5.94 0.66 9 1 C9 3.64 9 6.28 9 9 C8.34 9 7.68 9 7 9 C6.96261719 9.84304687 6.92523438 10.68609375 6.88671875 11.5546875 C6.82097656 12.65039062 6.75523438 13.74609375 6.6875 14.875 C6.62949219 15.96554688 6.57148437 17.05609375 6.51171875 18.1796875 C6.34285156 19.11039063 6.17398438 20.04109375 6 21 C5.01 21.66 4.02 22.32 3 23 C2.95101562 21.72382813 2.90203125 20.44765625 2.8515625 19.1328125 C2.77653809 17.46351928 2.70099012 15.79424954 2.625 14.125 C2.57859375 12.86236328 2.57859375 12.86236328 2.53125 11.57421875 C2.49257813 10.76855469 2.45390625 9.96289062 2.4140625 9.1328125 C2.3826416 8.38918457 2.3512207 7.64555664 2.31884766 6.87939453 C2.14580449 4.75989026 2.14580449 4.75989026 0 3 C0 2.01 0 1.02 0 0 Z " fill="#20201E" transform="translate(39,9)"/>
<path d="M0 0 C-0.33 1.32 -0.66 2.64 -1 4 C-1.66 4 -2.32 4 -3 4 C-3 10.27 -3 16.54 -3 23 C-3.66 23 -4.32 23 -5 23 C-5.07347656 21.82630859 -5.07347656 21.82630859 -5.1484375 20.62890625 C-5.22320312 19.61699219 -5.29796875 18.60507812 -5.375 17.5625 C-5.44460938 16.55316406 -5.51421875 15.54382813 -5.5859375 14.50390625 C-5.72257813 13.67761719 -5.85921875 12.85132813 -6 12 C-6.66 11.67 -7.32 11.34 -8 11 C-8 8.03 -8 5.06 -8 2 C-5.09399739 0.74335022 -3.20395416 0 0 0 Z " fill="#1B1B19" transform="translate(10,9)"/>
<path d="M0 0 C2 3 2 3 1.8125 5.125 C1.544375 5.74375 1.27625 6.3625 1 7 C0.01 7.33 -0.98 7.66 -2 8 C-2 9.65 -2 11.3 -2 13 C-3.8125 13.6875 -3.8125 13.6875 -6 14 C-7.8125 12.875 -7.8125 12.875 -9 11 C-8.6875 8.3125 -8.6875 8.3125 -8 6 C-7.01 5.67 -6.02 5.34 -5 5 C-5 3.68 -5 2.36 -5 1 C-3 0 -3 0 0 0 Z " fill="#D7D7D6" transform="translate(36,31)"/>
<path d="M0 0 C0.99 0 1.98 0 3 0 C3 0.66 3 1.32 3 2 C5.64 1.67 8.28 1.34 11 1 C8 3 8 3 5 3 C4.67 6.3 4.34 9.6 4 13 C4.66 13.33 5.32 13.66 6 14 C5.01 14 4.02 14 3 14 C3 15.65 3 17.3 3 19 C2.01 19 1.02 19 0 19 C-0.19425873 16.20865148 -0.38069517 13.41716313 -0.5625 10.625 C-0.61857422 9.8309375 -0.67464844 9.036875 -0.73242188 8.21875 C-1.11328125 2.2265625 -1.11328125 2.2265625 0 0 Z " fill="#C0C0BF" transform="translate(23,34)"/>
<path d="M0 0 C2.16874252 0.50603992 3.99967627 0.99983813 6 2 C6 3.32 6 4.64 6 6 C6.66 6 7.32 6 8 6 C8.6875 8.3125 8.6875 8.3125 9 11 C7.8125 12.875 7.8125 12.875 6 14 C3.88671875 13.5703125 3.88671875 13.5703125 2 13 C1.93941406 12.22914062 1.87882813 11.45828125 1.81640625 10.6640625 C1.73261719 9.66117188 1.64882812 8.65828125 1.5625 7.625 C1.48128906 6.62726562 1.40007813 5.62953125 1.31640625 4.6015625 C1.15034374 2.02072387 1.15034374 2.02072387 0 0 Z " fill="#E8E8E7" transform="translate(13,31)"/>
<path d="M0 0 C1 3 1 3 0.1796875 5.2265625 C-0.25085937 6.01804687 -0.68140625 6.80953125 -1.125 7.625 C-1.54007813 8.42164063 -1.95515625 9.21828125 -2.3828125 10.0390625 C-4.42963549 12.52095898 -5.86445765 12.69383593 -9 13 C-8.53078003 10.58686871 -8.0498364 8.19380821 -7.4375 5.8125 C-6.92178649 3.98673164 -6.92178649 3.98673164 -7 2 C-4.69 1.34 -2.38 0.68 0 0 Z " fill="#323230" transform="translate(44,30)"/>
<path d="M0 0 C0.99 0 1.98 0 3 0 C3 1.65 3 3.3 3 5 C5.475 5.99 5.475 5.99 8 7 C8 8.98 8 10.96 8 13 C8.66 13.33 9.32 13.66 10 14 C8.35 13.67 6.7 13.34 5 13 C4.67 11.35 4.34 9.7 4 8 C2.68 7.67 1.36 7.34 0 7 C0 4.69 0 2.38 0 0 Z " fill="#C7C7C7" transform="translate(7,25)"/>
<path d="M0 0 C0.33 0.66 0.66 1.32 1 2 C1.66 2 2.32 2 3 2 C3.33 5.63 3.66 9.26 4 13 C4.99 13.33 5.98 13.66 7 14 C8.70533217 17.32091002 9 19.18492784 9 23 C3.63939619 18.40743592 1.03235494 10.09454944 0.1875 3.25 C0.125625 2.1775 0.06375 1.105 0 0 Z " fill="#848482" transform="translate(1,19)"/>
<path d="M0 0 C2.31 0 4.62 0 7 0 C7 1.65 7 3.3 7 5 C3.04 5 -0.92 5 -5 5 C-5 4.34 -5 3.68 -5 3 C-3.35 2.34 -1.7 1.68 0 1 C0 0.67 0 0.34 0 0 Z " fill="#272725" transform="translate(16,5)"/>
<path d="M0 0 C0.99 0 1.98 0 3 0 C3 4.62 3 9.24 3 14 C2.01 14 1.02 14 0 14 C0 9.38 0 4.76 0 0 Z " fill="#E6E6E6" transform="translate(23,39)"/>
<path d="M0 0 C1.32 0.33 2.64 0.66 4 1 C4.44032071 8.51806849 3.28612778 14.84224277 1 22 C0.67 22 0.34 22 0 22 C-0.02698189 20.37509046 -0.04638757 18.75005367 -0.0625 17.125 C-0.07410156 16.22007813 -0.08570313 15.31515625 -0.09765625 14.3828125 C0 12 0 12 1 10 C1.66 10 2.32 10 3 10 C2.41825155 4.6913151 2.41825155 4.6913151 0 0 Z " fill="#929291" transform="translate(45,8)"/>
<path d="M0 0 C1.65 0 3.3 0 5 0 C4.95875 0.78375 4.9175 1.5675 4.875 2.375 C4.71271266 5.16116119 4.71271266 5.16116119 7 7 C7 8.32 7 9.64 7 11 C5.68 10.67 4.36 10.34 3 10 C2.814375 9.1646875 2.814375 9.1646875 2.625 8.3125 C1.94060198 5.78022734 0.98466747 3.42884643 0 1 C0 0.67 0 0.34 0 0 Z " fill="#1F1F1D" transform="translate(7,32)"/>
<path d="M0 0 C0.33 0 0.66 0 1 0 C1 3.96 1 7.92 1 12 C0.01 12.33 -0.98 12.66 -2 13 C-2.05416188 11.39620659 -2.09286638 9.79188594 -2.125 8.1875 C-2.14820313 7.29417969 -2.17140625 6.40085937 -2.1953125 5.48046875 C-2 3 -2 3 0 0 Z " fill="#E7E7E7" transform="translate(10,11)"/>
<path d="M0 0 C2.475 0.495 2.475 0.495 5 1 C5 5.95 5 10.9 5 16 C4.34 15.67 3.68 15.34 3 15 C3 11.7 3 8.4 3 5 C2.34 5 1.68 5 1 5 C0.67 3.35 0.34 1.7 0 0 Z " fill="#636362" transform="translate(18,32)"/>
<path d="M0 0 C1.98 0.99 3.96 1.98 6 3 C5.6875 4.9375 5.6875 4.9375 5 7 C4.01 7.33 3.02 7.66 2 8 C1.34 8.99 0.68 9.98 0 11 C-0.38218767 9.34385343 -0.71395102 7.67542976 -1 6 C-0.67 5.67 -0.34 5.34 0 5 C0.04063832 3.33382885 0.042721 1.66611905 0 0 Z " fill="#232321" transform="translate(27,42)"/>
<path d="M0 0 C2 3 2 3 1.625 5.1875 C1.41875 5.785625 1.2125 6.38375 1 7 C0.34 7 -0.32 7 -1 7 C-1.33 6.34 -1.66 5.68 -2 5 C-4.02463255 4.34786708 -4.02463255 4.34786708 -6 4 C-5.67 3.01 -5.34 2.02 -5 1 C-3 0 -3 0 0 0 Z " fill="#EEEEEE" transform="translate(36,31)"/>
<path d="M0 0 C0.99 0.99 1.98 1.98 3 3 C3.66 3 4.32 3 5 3 C3.70700306 5.88437779 2.34058637 7.87219421 0 10 C-0.99 9.67 -1.98 9.34 -3 9 C-2.01 6.03 -1.02 3.06 0 0 Z " fill="#636361" transform="translate(34,39)"/>
<path d="M0 0 C1.32 0 2.64 0 4 0 C4 0.66 4 1.32 4 2 C3.34 2 2.68 2 2 2 C2.33 4.97 2.66 7.94 3 11 C2.01 10.67 1.02 10.34 0 10 C0 6.7 0 3.4 0 0 Z " fill="#626261" transform="translate(0,9)"/>
<path d="M0 0 C1 3 1 3 -0.4375 6.1875 C-1.2109375 7.5796875 -1.2109375 7.5796875 -2 9 C-2.33 9 -2.66 9 -3 9 C-3 7.02 -3 5.04 -3 3 C-4.32 3.33 -5.64 3.66 -7 4 C-7 3.34 -7 2.68 -7 2 C-4.69 1.34 -2.38 0.68 0 0 Z " fill="#6F6F6E" transform="translate(44,30)"/>
<path d="M0 0 C0 0.66 0 1.32 0 2 C-4.47058824 6 -4.47058824 6 -7 6 C-6.67 4.35 -6.34 2.7 -6 1 C-3 0 -3 0 0 0 Z " fill="#EDEDED" transform="translate(34,36)"/>
<path d="M0 0 C0.33 0 0.66 0 1 0 C1 2.97 1 5.94 1 9 C-0.65 7.68 -2.3 6.36 -4 5 C-3.67 4.34 -3.34 3.68 -3 3 C-2.01 3.33 -1.02 3.66 0 4 C0 2.68 0 1.36 0 0 Z " fill="#777776" transform="translate(14,39)"/>
<path d="M0 0 C0.99 0 1.98 0 3 0 C3.1875 2.875 3.1875 2.875 3 6 C2.01 6.66 1.02 7.32 0 8 C0 5.36 0 2.72 0 0 Z " fill="#30302E" transform="translate(42,24)"/>
<path d="M0 0 C0.99 0 1.98 0 3 0 C3 2.64 3 5.28 3 8 C2.34 8 1.68 8 1 8 C0.67 5.36 0.34 2.72 0 0 Z " fill="#353533" transform="translate(4,24)"/>
<path d="M0 0 C2.69082872 0.17635452 5.32851446 0.61835921 8 1 C8 1.66 8 2.32 8 3 C5.75 3.6875 5.75 3.6875 3 4 C0.6875 2.5625 0.6875 2.5625 -1 1 C-0.67 0.67 -0.34 0.34 0 0 Z " fill="#D2D2D2" transform="translate(14,29)"/>
<path d="M0 0 C0.99 0 1.98 0 3 0 C3 1.65 3 3.3 3 5 C3.66 5.33 4.32 5.66 5 6 C3.68 6 2.36 6 1 6 C0.67 4.02 0.34 2.04 0 0 Z " fill="#F5F5F4" transform="translate(7,25)"/>
</svg>
